<svg width="14" height="17" viewBox="0 0 14 17" fill="none" xmlns="http://www.w3.org/2000/svg">
<path d="M3.11111 7.61111H4.66667V9.27778H3.11111V7.61111ZM14 3.44444V15.1111C14 16.0278 13.3 16.7778 12.4444 16.7778H1.55556C1.143 16.7778 0.747335 16.6022 0.455612 16.2896C0.163888 15.9771 0 15.5531 0 15.1111L0.00777777 3.44444C0.00777777 2.52778 0.692222 1.77778 1.55556 1.77778H2.33333V0.111111H3.88889V1.77778H10.1111V0.111111H11.6667V1.77778H12.4444C13.3 1.77778 14 2.52778 14 3.44444ZM1.55556 5.11111H12.4444V3.44444H1.55556V5.11111ZM12.4444 15.1111V6.77778H1.55556V15.1111H12.4444ZM9.33333 9.27778H10.8889V7.61111H9.33333V9.27778ZM6.22222 9.27778H7.77778V7.61111H6.22222V9.27778Z" fill="#7688A4"/>
</svg>
