<svg width="66" height="20" viewBox="0 0 66 20" fill="none" xmlns="http://www.w3.org/2000/svg">
<path fill-rule="evenodd" clip-rule="evenodd" d="M0.877853 17.6708H1.71374C1.73541 17.455 1.78794 17.2563 1.87133 17.0742C1.95016 16.8976 2.06157 16.7377 2.19964 16.6029C2.33622 16.4709 2.49644 16.3686 2.6816 16.294C2.86612 16.2195 3.07099 16.1818 3.29555 16.1818C3.54441 16.1818 3.76767 16.2254 3.96531 16.3125C4.1623 16.3996 4.33105 16.5198 4.46894 16.6729C4.60749 16.826 4.71321 17.0068 4.78675 17.2154C4.86029 17.4233 4.89706 17.6503 4.89706 17.8945V17.9632C4.89706 18.2074 4.86029 18.4338 4.78675 18.6423C4.71817 18.8424 4.61007 19.0265 4.46894 19.1835C4.33105 19.3353 4.16361 19.4541 3.96662 19.5399C3.76964 19.6264 3.54835 19.6693 3.30212 19.6693C3.07098 19.6693 2.86152 19.631 2.67307 19.5544C2.49125 19.4815 2.32562 19.3731 2.18575 19.2355C2.04588 19.0979 1.93455 18.9337 1.8582 18.7525C1.77515 18.5581 1.72521 18.3511 1.71045 18.1401H0.877853V19.6072H0.274414V16.2439H0.877853V17.6708ZM2.30733 17.9632C2.30733 18.1308 2.32703 18.2892 2.3684 18.4384C2.40976 18.5875 2.47214 18.7189 2.55488 18.8317C2.63827 18.9446 2.74202 19.0344 2.86612 19.1004C2.99088 19.1664 3.13533 19.2 3.30212 19.2C3.46627 19.2 3.61073 19.167 3.73681 19.101C3.86156 19.0344 3.96597 18.9446 4.04805 18.8317C4.13012 18.7189 4.1925 18.5875 4.23387 18.4384C4.27655 18.2892 4.29756 18.1308 4.29756 17.9632V17.8945C4.29756 17.7289 4.27655 17.5711 4.23387 17.4207C4.19573 17.2787 4.13208 17.1449 4.04608 17.026C3.96338 16.9134 3.85656 16.8209 3.73352 16.7554C3.59816 16.6856 3.44762 16.6509 3.29555 16.6544C3.13139 16.6544 2.98759 16.6874 2.86481 16.7554C2.7429 16.8215 2.63707 16.9139 2.55488 17.026C2.46898 17.1448 2.40575 17.2786 2.3684 17.4207C2.32697 17.5751 2.30643 17.7345 2.30733 17.8945V17.9632ZM7.26289 18.1744H6.82492V19.6072H6.22214V16.2439H6.82492V17.6675H7.21758L8.39754 16.2439H9.12377L7.73632 17.8609L9.23999 19.6072H8.47831L7.26289 18.1744ZM13.162 16.2439V19.6072H12.5592V16.7197H11.3694L11.3274 17.6833C11.3123 18.0021 11.2834 18.282 11.2414 18.5222C11.2093 18.7323 11.143 18.9357 11.0451 19.1241C10.9644 19.2764 10.8418 19.402 10.6918 19.4858C10.5447 19.567 10.3602 19.6072 10.1376 19.6072H9.96228L9.97541 19.0944L10.1054 19.0911C10.2067 19.0954 10.3068 19.0677 10.3917 19.0119C10.4744 18.9482 10.5369 18.8618 10.5716 18.7631C10.6176 18.6509 10.6511 18.505 10.6741 18.3268C10.6964 18.1486 10.7148 17.9341 10.7272 17.6833L10.7929 16.2445H13.162V16.2439ZM16.8207 19.6072C16.7964 19.5575 16.7789 19.5047 16.7689 19.4502C16.7556 19.3848 16.7449 19.319 16.7367 19.2528C16.6777 19.3112 16.6143 19.3648 16.5469 19.4132C16.3111 19.5821 16.0282 19.6718 15.7386 19.6693C15.5587 19.6693 15.3965 19.6429 15.2507 19.5914C15.1144 19.5451 14.9879 19.4735 14.8778 19.3802C14.7756 19.2936 14.6938 19.1854 14.638 19.0633C14.5823 18.9413 14.5541 18.8083 14.5554 18.674C14.5554 18.4945 14.5922 18.3354 14.6657 18.1975C14.7392 18.0595 14.8443 17.944 14.9809 17.851C15.1188 17.7579 15.2849 17.6873 15.4793 17.6398C15.6736 17.5923 15.891 17.5678 16.1306 17.5678H16.7268V17.3038C16.7268 17.1032 16.6645 16.9428 16.5391 16.824C16.4143 16.7046 16.2291 16.6452 15.9849 16.6452C15.8726 16.6452 15.7695 16.6597 15.6762 16.6887C15.5911 16.7139 15.5108 16.7532 15.4385 16.8049C15.3761 16.85 15.3237 16.9078 15.2849 16.9745C15.249 17.0357 15.2299 17.1054 15.2297 17.1765H14.6263C14.6263 17.0563 14.6591 16.9369 14.7248 16.8187C14.7911 16.7013 14.885 16.5943 15.0058 16.5006C15.1267 16.4062 15.2731 16.329 15.4451 16.2703C15.6172 16.2109 15.8089 16.1818 16.0203 16.1818C16.2107 16.1818 16.3861 16.2049 16.5469 16.2518C16.7085 16.298 16.8457 16.3686 16.9606 16.463C17.0749 16.5574 17.1642 16.6749 17.2298 16.8161C17.2942 16.9567 17.327 17.1217 17.327 17.3104V18.874C17.327 18.9875 17.3369 19.1076 17.3572 19.2324C17.3782 19.3578 17.4091 19.466 17.4498 19.5577V19.6072H16.8207ZM15.826 19.169C15.9336 19.169 16.0361 19.1545 16.1306 19.1254C16.2258 19.0964 16.3119 19.0588 16.39 19.0119C16.4643 18.9682 16.5324 18.9144 16.5922 18.8522C16.65 18.7915 16.6947 18.7294 16.7268 18.6654V17.9751H16.2278C15.8844 17.9751 15.6198 18.0265 15.4333 18.1295C15.2481 18.2318 15.1549 18.3869 15.1549 18.5941C15.1549 18.6747 15.1687 18.7506 15.1969 18.8205C15.2246 18.8906 15.2685 18.953 15.325 19.0027C15.3869 19.0562 15.4584 19.0975 15.5357 19.1241C15.6191 19.1538 15.7156 19.169 15.826 19.169ZM20.337 16.4366C20.5668 16.4366 20.7704 16.4749 20.9503 16.5514C21.1295 16.6287 21.2819 16.7349 21.4073 16.8722C21.532 17.0088 21.6286 17.1692 21.6942 17.3553C21.7599 17.5401 21.7927 17.7421 21.7927 17.9599V18.0312C21.7927 18.2655 21.7579 18.4826 21.6877 18.6826C21.6218 18.875 21.5169 19.0517 21.3797 19.2013C21.2416 19.3495 21.0737 19.4665 20.8872 19.5445C20.678 19.6309 20.4535 19.6735 20.2273 19.6699C20.0012 19.6735 19.7767 19.6309 19.5674 19.5445C19.3806 19.4662 19.2125 19.3489 19.0743 19.2003C18.936 19.0517 18.8308 18.8752 18.7657 18.6826C18.6928 18.4733 18.6566 18.2529 18.6586 18.0312V17.7236C18.6586 17.3421 18.6967 17.0088 18.7736 16.7224C18.8504 16.4366 18.9581 16.1944 19.0979 15.9951C19.2371 15.7964 19.4039 15.6387 19.5983 15.5232C19.7933 15.407 20.008 15.3271 20.2437 15.2836C20.3569 15.2652 20.4693 15.2423 20.5806 15.2149C20.6804 15.1905 20.7644 15.1595 20.8354 15.1225C20.8994 15.0905 20.9545 15.0428 20.9956 14.9839C21.0341 14.9231 21.0533 14.852 21.0507 14.78H21.5432C21.5432 14.9833 21.5104 15.1437 21.4447 15.2618C21.379 15.3799 21.2911 15.4723 21.1821 15.539C21.0653 15.608 20.9382 15.6576 20.8058 15.6862C20.6608 15.7191 20.5155 15.7505 20.3698 15.7806C20.2275 15.8105 20.0881 15.8533 19.9535 15.9086C19.8222 15.9621 19.7053 16.0347 19.6016 16.1264C19.4935 16.2232 19.4037 16.3388 19.3363 16.4676C19.2565 16.6236 19.2028 16.7917 19.1774 16.9653C19.3194 16.8084 19.489 16.6793 19.6777 16.5844C19.8714 16.4854 20.0914 16.4366 20.3376 16.4366H20.337ZM20.2208 16.9092C20.0566 16.9092 19.9141 16.9375 19.7933 16.995C19.6774 17.0479 19.5748 17.1264 19.4932 17.2246C19.4144 17.321 19.3553 17.4332 19.3179 17.5606C19.2799 17.6902 19.2608 17.8247 19.2614 17.9599V18.0312C19.2614 18.1889 19.2805 18.3387 19.3179 18.48C19.356 18.6225 19.4151 18.7466 19.4952 18.8535C19.5746 18.9604 19.6751 19.0449 19.7966 19.1083C19.9174 19.1716 20.0612 19.2033 20.2273 19.2033C20.3915 19.2033 20.5346 19.1716 20.6568 19.1083C20.7757 19.048 20.8791 18.9608 20.9588 18.8535C21.0376 18.7466 21.0967 18.6225 21.1348 18.4806C21.1742 18.3387 21.1939 18.1889 21.1939 18.0318V17.9592C21.1939 17.8206 21.1742 17.688 21.1348 17.5606C21.0985 17.4377 21.038 17.3235 20.9568 17.2246C20.874 17.1263 20.7704 17.0478 20.6535 16.995C20.5172 16.9349 20.3695 16.9057 20.2208 16.9092ZM25.0141 17.8945C25.0141 17.6503 25.0516 17.4233 25.1258 17.2154C25.2006 17.0068 25.3063 16.826 25.4436 16.6729C25.583 16.5181 25.7538 16.3952 25.9446 16.3125C26.1416 16.2254 26.3615 16.1818 26.6058 16.1818C26.854 16.1818 27.0773 16.2254 27.2756 16.3125C27.4725 16.3996 27.6406 16.5198 27.7792 16.6729C27.9171 16.826 28.0235 17.0068 28.097 17.2154C28.1705 17.4233 28.2066 17.6503 28.2066 17.8945V17.9632C28.2066 18.2074 28.1705 18.4338 28.097 18.6423C28.0284 18.8424 27.9203 19.0265 27.7792 19.1835C27.6413 19.3353 27.4732 19.4541 27.2769 19.5399C27.0799 19.6264 26.8586 19.6693 26.6124 19.6693C26.3655 19.6693 26.1442 19.6264 25.9479 19.5406C25.7509 19.4548 25.5834 19.3353 25.4449 19.1829C25.3037 19.0256 25.1952 18.8416 25.1258 18.6417C25.0497 18.4237 25.0119 18.1941 25.0141 17.9632V17.8945ZM25.6169 17.9632C25.6169 18.1308 25.6373 18.2892 25.6786 18.4384C25.7194 18.5875 25.7817 18.7189 25.8651 18.8317C25.9479 18.9446 26.0516 19.0344 26.1764 19.1004C26.3005 19.1664 26.4456 19.2 26.6124 19.2C26.7765 19.2 26.921 19.167 27.0464 19.101C27.1718 19.0344 27.2756 18.9446 27.3576 18.8317C27.4397 18.7189 27.5021 18.5875 27.5441 18.4384C27.5861 18.2892 27.6071 18.1308 27.6071 17.9632V17.8945C27.6071 17.7289 27.5861 17.5711 27.5441 17.4207C27.506 17.2787 27.4423 17.1449 27.3563 17.026C27.2734 16.9133 27.1664 16.8208 27.0431 16.7554C26.9079 16.6857 26.7576 16.651 26.6058 16.6544C26.4416 16.6544 26.2972 16.6874 26.1744 16.7554C26.0527 16.8216 25.9471 16.914 25.8651 17.026C25.7817 17.1382 25.7194 17.2702 25.6786 17.4207C25.637 17.5751 25.6162 17.7345 25.6169 17.8945V17.9632ZM32.3132 16.2439V19.6072H31.7104V16.7197H30.5206L30.4786 17.6833C30.4675 17.9645 30.439 18.2446 30.3932 18.5222C30.361 18.7324 30.2944 18.9357 30.1962 19.1241C30.1158 19.2763 29.9933 19.4019 29.8436 19.4858C29.6965 19.567 29.512 19.6072 29.2894 19.6072H29.1141L29.1272 19.0944L29.2566 19.0911C29.3581 19.0955 29.4585 19.0678 29.5435 19.0119C29.6262 18.9482 29.6887 18.8618 29.7235 18.7631C29.7694 18.6509 29.8029 18.505 29.8259 18.3268C29.8482 18.1486 29.8659 17.9341 29.8791 17.6833L29.9441 16.2445H32.3132V16.2439ZM36.0763 16.2439H36.6758V19.6072H36.0763V17.1547L34.459 19.6072H33.8589V16.2439H34.459V18.6991L36.0763 16.2439ZM41.0352 19.6072H40.4357V18.1711H38.825V19.6072H38.2215V16.2439H38.825V17.7018H40.4357V16.2439H41.0352V19.6072ZM44.795 16.7197H43.1777V19.6072H42.5743V16.2439H44.795V16.7191V16.7197ZM8.39294 11.5196L8.2347 11.0675L7.87027 10.0273C7.74936 9.68027 7.62811 9.33333 7.5065 8.98652L7.3476 8.53508H3.20888L2.16353 11.5189H0.801027L4.63704 1.09357H5.92009L9.7561 11.5189H8.39294V11.5196ZM5.2569 2.67559L5.08749 3.15607C4.94805 3.55168 4.80972 3.94769 4.6725 4.34407C4.50965 4.81663 4.34418 5.28853 4.17872 5.76043C4.01325 6.23299 3.87338 6.62899 3.76044 6.94909L3.59103 7.42958H6.96609L5.30023 2.67559H5.2569ZM14.7018 3.65899C15.692 3.65899 16.4944 4.02199 17.1103 4.74997C17.7256 5.47729 18.0329 6.43561 18.0329 7.62559C18.0329 8.81492 17.7275 9.7739 17.1175 10.5012C16.5069 11.2285 15.711 11.5922 14.7307 11.5922C14.1778 11.5922 13.688 11.4754 13.2599 11.2417C12.8383 11.0141 12.4887 10.6723 12.2506 10.255H12.2217V14.12H10.9676V3.73027H12.1567V4.99483H12.1856C12.4115 4.59025 12.7529 4.26619 13.21 4.02331C13.6695 3.77936 14.1821 3.65395 14.7018 3.65833V3.65899ZM14.4713 10.4722C15.1588 10.4722 15.7104 10.2135 16.126 9.69535C16.5417 9.17725 16.7498 8.48756 16.7498 7.62559C16.7498 6.76297 16.5417 6.07328 16.126 5.55518C15.7104 5.03773 15.1588 4.77901 14.4713 4.77901C13.8029 4.77901 13.2599 5.04104 12.8416 5.5664C12.4233 6.0911 12.2145 6.77749 12.2145 7.62559C12.2145 8.47303 12.4233 9.15944 12.8416 9.6848C13.2599 10.2095 13.8029 10.4722 14.4713 10.4722ZM23.2675 3.65899C24.2577 3.65899 25.0601 4.02199 25.6754 4.74997C26.2906 5.47729 26.5986 6.43561 26.5986 7.62559C26.5986 8.81492 26.2932 9.7739 25.6826 10.5012C25.0719 11.2285 24.2774 11.5922 23.2964 11.5922C22.7435 11.5922 22.253 11.4754 21.8256 11.2417C21.404 11.0141 21.0544 10.6723 20.8163 10.255H20.7874V14.12H19.5333V3.73027H20.7218V4.99483H20.7513C20.9772 4.59025 21.3186 4.26619 21.775 4.02331C22.2347 3.77925 22.7476 3.65384 23.2675 3.65833V3.65899ZM23.037 10.4722C23.7239 10.4722 24.2754 10.2135 24.6917 9.69535C25.1074 9.17725 25.3155 8.48756 25.3155 7.62559C25.3155 6.76297 25.1074 6.07328 24.6917 5.55518C24.2754 5.03773 23.7239 4.77901 23.037 4.77901C22.3686 4.77901 21.8256 5.04104 21.4073 5.5664C20.989 6.0911 20.7802 6.77749 20.7802 7.62559C20.7802 8.47303 20.989 9.15944 21.4073 9.6848C21.8256 10.2095 22.3686 10.4722 23.037 10.4722ZM31.4727 8.65124C31.5351 9.57128 31.9186 10.3078 32.6225 10.8622C33.3264 11.4166 34.2292 11.6932 35.3297 11.6932C36.5268 11.6932 37.4749 11.4147 38.1742 10.8583C38.8736 10.3026 39.2235 9.54752 39.2235 8.59382C39.2235 7.8467 38.9871 7.2494 38.5163 6.80192C38.0455 6.35378 37.2714 5.99473 36.1952 5.72545L35.1065 5.43637C34.4 5.25289 33.8917 5.0351 33.5811 4.78297C33.2712 4.52953 33.1162 4.20547 33.1162 3.81079C33.1162 3.29995 33.329 2.88613 33.7545 2.56801C34.18 2.24989 34.7289 2.09083 35.402 2.09083C36.0796 2.09083 36.6299 2.25253 37.0527 2.57527C37.4762 2.89801 37.7159 3.33889 37.7737 3.89725H39.0718C39.043 3.02077 38.6897 2.30533 38.0121 1.75159C37.3344 1.19719 36.4788 0.920654 35.4446 0.920654C34.3638 0.920654 33.4807 1.19521 32.7952 1.74433C32.1103 2.29345 31.7682 3.00163 31.7682 3.86821C31.7682 5.23177 32.6908 6.14918 34.5365 6.62108L35.8708 6.96823C36.5721 7.14643 37.0829 7.37744 37.4027 7.66124C37.7225 7.9457 37.882 8.30936 37.882 8.75222C37.882 9.26306 37.6522 9.68546 37.1939 10.0207C36.7343 10.3554 36.1545 10.5223 35.4525 10.5223C34.7119 10.5223 34.0966 10.3514 33.6067 10.0095C33.1162 9.66763 32.8398 9.21488 32.7774 8.65124H31.4727ZM41.1698 1.97533V3.73093H40.0883V4.77175H41.1698V9.4967C41.1698 10.2432 41.3201 10.7771 41.6202 11.0972C41.921 11.4173 42.422 11.5777 43.1239 11.5777C43.273 11.5777 43.4259 11.5711 43.5816 11.5592C43.7378 11.5473 43.8547 11.5315 43.9315 11.513V10.4504C43.8882 10.455 43.8068 10.4623 43.686 10.4722C43.5877 10.4808 43.4891 10.4857 43.3905 10.4867C43.0589 10.4867 42.8153 10.4022 42.659 10.2339C42.5027 10.065 42.4246 9.80227 42.4246 9.44587V4.77175H43.9388V3.73093H42.4246V1.97533H41.1704H41.1698ZM48.7118 11.5915C47.6205 11.5915 46.7504 11.2318 46.1017 10.5118C45.4529 9.79172 45.1279 8.82943 45.1279 7.62559C45.1279 6.41647 45.4529 5.45287 46.1017 4.73545C46.7504 4.01803 47.6205 3.65899 48.7118 3.65899C49.8024 3.65899 50.6725 4.01803 51.3219 4.73545C51.9706 5.45287 52.295 6.41647 52.295 7.62559C52.295 8.82943 51.9706 9.79172 51.3219 10.5118C50.6725 11.2318 49.8024 11.5922 48.7118 11.5922V11.5915ZM48.7118 10.4722C49.4374 10.4722 50.0034 10.2201 50.4098 9.71714C50.8156 9.21356 51.0185 8.51594 51.0185 7.62494C51.0185 6.72932 50.8156 6.03103 50.4098 5.5301C50.0034 5.02915 49.438 4.77901 48.7118 4.77901C47.9856 4.77901 47.4195 5.03047 47.0138 5.53405C46.6073 6.03697 46.4044 6.73459 46.4044 7.62559C46.4044 8.51659 46.6086 9.21356 47.017 9.71714C47.4261 10.2201 47.9908 10.4722 48.7111 10.4722H48.7118ZM53.7941 11.5196H55.0489V6.70094C55.0489 6.15182 55.2019 5.70829 55.5072 5.37103C55.8125 5.03443 56.217 4.86547 56.722 4.86547C56.8756 4.86547 57.0161 4.87273 57.1435 4.88725C57.2709 4.90177 57.3589 4.91827 57.4068 4.93741V3.70255C57.2355 3.67335 57.0619 3.65877 56.8881 3.65899C56.4357 3.65899 56.0384 3.77911 55.6944 4.02001C55.3568 4.25249 55.1128 4.59837 55.0062 4.99549H54.9773V3.73093H53.7947V11.5196H53.7941ZM61.7544 4.7645C61.1437 4.7645 60.6381 4.96645 60.2369 5.3717C59.8357 5.77562 59.6131 6.30823 59.5698 6.96823H63.8457C63.8313 6.30823 63.633 5.77561 63.2508 5.37103C62.8687 4.96645 62.3696 4.76383 61.7544 4.76383V4.7645ZM63.8162 9.29408H65.0572C64.9508 9.96397 64.5956 10.5144 63.9895 10.9454C63.3841 11.3764 62.6651 11.5922 61.8338 11.5922C60.7425 11.5922 59.8764 11.2365 59.2349 10.5263C58.5927 9.81548 58.2723 8.85848 58.2723 7.65464C58.2723 6.44552 58.5914 5.47663 59.2309 4.74997C59.8705 4.02265 60.7189 3.65899 61.776 3.65899C62.8142 3.65899 63.6363 4.00087 64.2417 4.68463C64.8477 5.36905 65.1504 6.30097 65.1504 7.48105V7.97209H59.5698V8.04469C59.5698 8.78654 59.7792 9.37856 60.1968 9.82208C60.6151 10.2649 61.1706 10.4867 61.8627 10.4867C62.3486 10.4867 62.7675 10.3791 63.1208 10.1653C63.4741 9.95078 63.7059 9.66037 63.8168 9.29408H63.8162Z" fill="#295091"/>
</svg>
