<svg width="19" height="23" viewBox="0 0 19 23" fill="none" xmlns="http://www.w3.org/2000/svg">
<path d="M16.7573 20.016C15.8485 21.3439 14.9089 22.6632 13.4256 22.691C11.9652 22.7187 11.4977 21.8264 9.83118 21.8264C8.16335 21.8264 7.64198 22.6632 6.26373 22.7187C4.83162 22.7721 3.74228 21.2845 2.82629 19.9625C0.954902 17.2605 -0.472604 12.3217 1.44737 8.9887C2.39948 7.33342 4.10343 6.286 5.94986 6.25828C7.35635 6.23188 8.68536 7.20604 9.54423 7.20604C10.4044 7.20604 12.0171 6.03718 13.7125 6.20878C14.4223 6.23782 16.4139 6.49456 17.693 8.365C17.5918 8.43166 15.316 9.75562 15.3436 12.5131C15.3711 15.8078 18.2314 16.9021 18.2649 16.9173C18.2386 16.9952 17.8079 18.4808 16.7573 20.016ZM10.5285 2.59C11.3132 1.66996 12.6402 0.986202 13.7348 0.940002C13.8747 2.21776 13.3605 3.49684 12.6015 4.4182C11.8398 5.3389 10.5948 6.055 9.3722 5.95996C9.20607 4.70992 9.82264 3.40642 10.5279 2.59H10.5285Z" fill="#295091"/>
</svg>
