<svg width="62" height="20" viewBox="0 0 62 20" fill="none" xmlns="http://www.w3.org/2000/svg">
<path fill-rule="evenodd" clip-rule="evenodd" d="M0.805949 17.2247H1.72914C1.75283 16.9755 1.81036 16.7452 1.90241 16.5337C1.99446 16.3229 2.11561 16.1411 2.26587 15.9882C2.41744 15.8352 2.59803 15.7136 2.79718 15.6306C3.01203 15.5419 3.24278 15.4977 3.47536 15.5006C3.74948 15.5006 3.99585 15.5511 4.21378 15.6521C4.4324 15.7532 4.61785 15.8919 4.77014 16.0697C4.9231 16.2475 5.04019 16.4569 5.12074 16.698C5.20196 16.9391 5.24257 17.2011 5.24257 17.484V17.5634C5.24257 17.8463 5.20196 18.109 5.12074 18.3501C5.03952 18.5912 4.9231 18.7999 4.77014 18.9764C4.61741 19.1526 4.42804 19.2937 4.21514 19.3899C3.98473 19.4925 3.73451 19.5435 3.48213 19.5394C3.2442 19.5429 3.00808 19.4977 2.78838 19.4067C2.58556 19.3212 2.40228 19.1957 2.24963 19.0377C2.09484 18.8754 1.97221 18.6855 1.8882 18.478C1.79648 18.2517 1.74164 18.0123 1.72576 17.7689H0.805949V19.4673H0.140625V15.5727H0.805949V17.2254V17.2247ZM2.38364 17.5634C2.38364 17.7581 2.40665 17.9413 2.45132 18.1143C2.49735 18.2868 2.56638 18.439 2.65775 18.5696C2.74913 18.7003 2.86419 18.804 3.00091 18.8808C3.1383 18.9575 3.29871 18.9959 3.48213 18.9959C3.64422 18.9991 3.80453 18.9618 3.94833 18.8873C4.09213 18.8128 4.21483 18.7036 4.30516 18.5696C4.39585 18.439 4.46421 18.2868 4.51091 18.1143C4.55761 17.9413 4.58063 17.7574 4.58063 17.5634V17.484C4.58157 17.2988 4.55813 17.1142 4.51091 16.9351C4.46912 16.7719 4.39878 16.6174 4.30313 16.4785C4.2133 16.3495 4.09529 16.2424 3.95794 16.1653C3.81015 16.0849 3.64375 16.0445 3.47536 16.0481C3.29397 16.0481 3.13492 16.0872 2.99955 16.1653C2.86351 16.2428 2.74913 16.3472 2.65775 16.4785C2.56218 16.6172 2.49248 16.7718 2.452 16.9351C2.40665 17.1095 2.38432 17.292 2.38432 17.484V17.5634H2.38364ZM7.85377 17.8079H7.37119V19.4673H6.70519V15.5727H7.37119V17.2213H7.80436L9.1059 15.5727H9.90727L8.37629 17.4449L10.0365 19.4673H9.19525L7.85377 17.8079ZM14.3649 15.5727V19.4673H13.6995V16.1236H12.3865L12.3398 17.2395C12.3236 17.6092 12.2917 17.9332 12.245 18.2113C12.21 18.4533 12.1369 18.6883 12.0285 18.9077C11.9418 19.082 11.8064 19.2276 11.6386 19.3273C11.4762 19.4209 11.2731 19.4673 11.0267 19.4673H10.8339L10.8474 18.8733L10.9909 18.87C11.1037 18.8749 11.215 18.8427 11.3076 18.7784C11.4001 18.703 11.4691 18.6031 11.5066 18.4901C11.5567 18.3595 11.5946 18.1911 11.619 17.985C11.644 17.7783 11.6636 17.5298 11.6779 17.2395L11.7496 15.5727H14.3649ZM18.4042 19.4673C18.3771 19.4095 18.3577 19.3484 18.3467 19.2855C18.3319 19.2099 18.32 19.1337 18.3108 19.0572C18.2459 19.1244 18.1757 19.1863 18.101 19.2424C17.8453 19.4382 17.5308 19.5426 17.2082 19.5387C17.0249 19.5418 16.8426 19.5117 16.6702 19.4498C16.5091 19.3892 16.3723 19.3084 16.2586 19.2047C16.1463 19.1027 16.0568 18.9783 15.996 18.8397C15.9334 18.6972 15.9016 18.5432 15.9026 18.3878C15.9026 18.179 15.9432 17.9945 16.0245 17.8355C16.1061 17.6753 16.226 17.5375 16.3737 17.4341C16.5246 17.3264 16.7081 17.2442 16.9226 17.189C17.158 17.1313 17.3997 17.1035 17.6421 17.1062H18.3V16.8004C18.3 16.5674 18.2309 16.3822 18.0928 16.2441C17.9541 16.1061 17.7504 16.0374 17.481 16.0374C17.3658 16.0361 17.2511 16.0532 17.1412 16.0879C17.0383 16.1215 16.9504 16.166 16.8779 16.2226C16.8082 16.2754 16.7504 16.3422 16.7081 16.4185C16.6681 16.4903 16.6472 16.5709 16.6471 16.6529H15.9818C15.9818 16.5135 16.0184 16.3754 16.0908 16.2387C16.1632 16.102 16.2668 15.9788 16.4001 15.8697C16.5341 15.7606 16.6952 15.6717 16.8854 15.6036C17.0749 15.535 17.2861 15.5006 17.5202 15.5006C17.7301 15.5006 17.9236 15.5275 18.1016 15.5814C18.279 15.6353 18.4313 15.7175 18.5578 15.8266C18.6844 15.9357 18.7832 16.0724 18.855 16.2354C18.926 16.3983 18.9619 16.5889 18.9619 16.8078V18.6181C18.9619 18.7501 18.9734 18.8888 18.9957 19.0336C19.0187 19.1791 19.0526 19.3044 19.0979 19.4101V19.4673H18.4042ZM17.3057 18.9602C17.4248 18.9602 17.5372 18.9434 17.6421 18.9097C17.747 18.876 17.8424 18.8323 17.9277 18.7784C18.0137 18.7245 18.0881 18.6625 18.1511 18.5932C18.2147 18.5231 18.2641 18.4517 18.3 18.377V17.5776H17.749C17.37 17.5776 17.0776 17.6375 16.8725 17.7561C16.7755 17.8079 16.6952 17.8858 16.6407 17.981C16.5863 18.0762 16.5599 18.1847 16.5646 18.2942C16.5646 18.3878 16.5801 18.4753 16.6119 18.5568C16.6418 18.637 16.69 18.7092 16.7527 18.7676C16.8157 18.8262 16.8935 18.8733 16.9856 18.9077C17.0769 18.9427 17.1839 18.9602 17.3057 18.9602ZM22.2851 15.7963C22.5383 15.7963 22.7636 15.8407 22.962 15.9289C23.1596 16.0178 23.3274 16.1418 23.4662 16.3C23.6043 16.4583 23.7099 16.6448 23.783 16.8597C23.8554 17.0745 23.8912 17.3082 23.8912 17.5601V17.6429C23.8912 17.9136 23.8527 18.1649 23.7755 18.3972C23.7039 18.6181 23.5884 18.8224 23.4357 18.9979C23.2853 19.1679 23.0996 19.3035 22.8916 19.3953C22.6622 19.4945 22.4141 19.5436 22.164 19.5394C21.9136 19.5439 21.6653 19.4947 21.4357 19.3953C21.2276 19.3035 21.042 19.1679 20.8915 18.9979C20.7386 18.822 20.6224 18.6176 20.5497 18.3965C20.4692 18.1532 20.4295 17.8984 20.432 17.6422V17.286C20.432 16.8449 20.4746 16.4583 20.5592 16.1276C20.6298 15.8288 20.7507 15.5439 20.9166 15.2851C21.0709 15.0548 21.255 14.8723 21.4695 14.7376C21.6841 14.6029 21.9217 14.5113 22.1816 14.4608C22.3196 14.4365 22.4442 14.4103 22.5538 14.3813C22.6635 14.353 22.7569 14.3166 22.8347 14.2735C22.9062 14.2357 22.9669 14.1806 23.0114 14.1133C23.054 14.0421 23.0751 13.9603 23.0723 13.8775H23.6164C23.6164 14.1133 23.5799 14.2985 23.5068 14.4352C23.4401 14.5654 23.3402 14.676 23.2171 14.7558C23.0895 14.8356 22.9492 14.8934 22.8022 14.9268C22.6466 14.9639 22.4855 15.0009 22.3217 15.0366C22.1592 15.0723 22.0056 15.1214 21.8614 15.1848C21.7185 15.2459 21.5872 15.3309 21.4729 15.436C21.3585 15.5417 21.2611 15.6737 21.1799 15.832C21.0986 15.9902 21.0404 16.1822 21.0039 16.4078C21.1592 16.2281 21.3467 16.0788 21.5569 15.9673C21.7814 15.8507 22.0318 15.7918 22.2851 15.7963ZM22.1565 16.3431C21.9751 16.3431 21.8181 16.3768 21.6841 16.4421C21.5508 16.5081 21.4404 16.597 21.3531 16.7088C21.2641 16.8246 21.1985 16.9566 21.1602 17.0974C21.1178 17.248 21.0967 17.4037 21.0973 17.5601V17.6429C21.0973 17.8247 21.1183 17.9985 21.1602 18.1628C21.2015 18.3272 21.2665 18.4713 21.3552 18.5945C21.4431 18.7184 21.5542 18.8168 21.6875 18.8902C21.8215 18.9629 21.9799 19 22.164 19C22.3447 19 22.5024 18.9629 22.6378 18.8902C22.7731 18.8161 22.8834 18.7184 22.9708 18.5945C23.0574 18.4713 23.1224 18.3272 23.1657 18.1628C23.2093 17.993 23.2309 17.8182 23.23 17.6429V17.5601C23.23 17.3984 23.2083 17.2449 23.1657 17.0974C23.126 16.9564 23.0591 16.8244 22.9687 16.7088C22.879 16.5959 22.7647 16.5047 22.6344 16.4421C22.4849 16.373 22.3213 16.3391 22.1565 16.3431ZM27.4473 17.484C27.4473 17.2011 27.4879 16.9385 27.5705 16.698C27.6462 16.4684 27.7652 16.2551 27.9211 16.0697C28.0727 15.8919 28.2568 15.7532 28.4741 15.6521C28.6906 15.5511 28.9343 15.5006 29.2037 15.5006C29.4778 15.5006 29.7248 15.5511 29.9428 15.6521C30.1607 15.7532 30.3462 15.8919 30.4991 16.0697C30.6514 16.2475 30.7685 16.4569 30.8497 16.698C30.9309 16.9391 30.9716 17.2011 30.9716 17.484V17.5634C30.9716 17.8463 30.9309 18.109 30.8497 18.3501C30.7685 18.5912 30.6514 18.7999 30.4991 18.9764C30.3464 19.1526 30.157 19.2937 29.9441 19.3899C29.7275 19.4896 29.4825 19.5394 29.2111 19.5394C28.939 19.5394 28.6947 19.4896 28.4774 19.3899C28.2645 19.2937 28.0752 19.1526 27.9224 18.9764C27.7655 18.7922 27.646 18.5795 27.5705 18.3501C27.4863 18.0964 27.4446 17.8306 27.4473 17.5634V17.484ZM28.1126 17.5634C28.1126 17.7581 28.135 17.9413 28.1803 18.1143C28.2257 18.2868 28.2947 18.439 28.3861 18.5696C28.4781 18.7003 28.5925 18.804 28.7299 18.8808C28.8666 18.9575 29.0277 18.9959 29.2104 18.9959C29.3726 18.9992 29.5331 18.9619 29.677 18.8875C29.8209 18.813 29.9438 18.7037 30.0341 18.5696C30.1242 18.439 30.1932 18.2868 30.2392 18.1143C30.2866 17.9413 30.3096 17.7574 30.3096 17.5634V17.484C30.3103 17.2987 30.2867 17.1142 30.2392 16.9351C30.1976 16.772 30.1275 16.6174 30.0321 16.4785C29.9423 16.3495 29.8243 16.2424 29.6869 16.1653C29.5389 16.0848 29.3723 16.0444 29.2037 16.0481C29.0374 16.0444 28.8732 16.0848 28.7279 16.1653C28.5925 16.2428 28.4774 16.3472 28.3861 16.4785C28.2907 16.6173 28.2211 16.7719 28.1803 16.9351C28.135 17.1095 28.1126 17.292 28.1126 17.484V17.5634ZM35.5036 15.5727V19.4673H34.8383V16.1236H33.5252L33.4785 17.2395C33.4623 17.6092 33.4305 17.9332 33.3838 18.2113C33.3487 18.4533 33.2756 18.6883 33.1672 18.9077C33.0805 19.082 32.9452 19.2276 32.7773 19.3273C32.6149 19.4209 32.4118 19.4673 32.1655 19.4673H31.9726L31.9861 18.8733L32.1296 18.87C32.2424 18.8749 32.3537 18.8427 32.4464 18.7784C32.5388 18.703 32.6079 18.6031 32.6454 18.4901C32.6954 18.3595 32.7333 18.1911 32.7577 17.985C32.7827 17.7783 32.8024 17.5298 32.8166 17.2395L32.8883 15.5727H35.5036ZM39.6573 15.5727H40.3192V19.4673H39.6573V16.6273L37.8718 19.4673H37.2099V15.5727H37.8718V18.4167L39.6573 15.5727ZM45.1308 19.4673H44.4689V17.8045H42.6909V19.468H42.0249V15.5727H42.6909V17.2611H44.4689V15.5727H45.1308V19.4673ZM49.2805 16.1236H47.495V19.4673H46.8297V15.5727H49.2805V16.1236ZM45.3494 6.36297C45.354 6.80852 45.2976 7.25261 45.1816 7.68297C45.0837 8.05274 44.9173 8.40106 44.6909 8.71001C44.4825 8.99011 44.2122 9.2189 43.901 9.37877C43.5904 9.53838 43.2357 9.61853 42.8377 9.61853C42.366 9.61853 41.9585 9.53636 41.6154 9.37271C41.2819 9.21706 40.9903 8.98486 40.7646 8.6952V11.9622H40.039V3.0953H40.7159L40.7524 4.00112C40.9758 3.68122 41.2587 3.43069 41.5998 3.24952C41.9416 3.06769 42.3477 2.97677 42.8195 2.97677C43.2215 2.97677 43.5802 3.05422 43.8956 3.20777C44.2094 3.36089 44.482 3.58622 44.6909 3.86508C44.9061 4.14928 45.0699 4.4914 45.1816 4.89212C45.2933 5.29216 45.3494 5.74069 45.3494 6.23906V6.36297ZM44.6178 6.23838C44.62 5.88761 44.58 5.53783 44.4987 5.19653C44.43 4.89734 44.3083 4.61272 44.1393 4.35603C43.983 4.12339 43.7726 3.93166 43.5261 3.79706C43.2783 3.66101 42.988 3.59299 42.6543 3.59299C42.4169 3.58918 42.1805 3.62306 41.9538 3.69334C41.5824 3.80863 41.2584 4.0401 41.0299 4.35334C40.9223 4.5015 40.8336 4.6564 40.7646 4.81804V7.88973C40.8418 8.05136 40.9385 8.20155 41.0543 8.33961C41.17 8.47767 41.3061 8.59755 41.4631 8.69789C41.6188 8.79891 41.7974 8.87771 41.9964 8.93495C42.1954 8.9922 42.4188 9.02048 42.6665 9.02048C43.0002 9.02048 43.2892 8.95246 43.5328 8.81642C43.7771 8.6797 43.985 8.4869 44.1393 8.25408C44.2997 8.01499 44.4195 7.73416 44.4987 7.41022C44.5778 7.08695 44.6178 6.73742 44.6178 6.36297V6.23838ZM47.7813 9.49999H47.0503V0.408157H47.7813V9.49999ZM53.9269 9.49999C53.8812 9.36851 53.8494 9.23263 53.8321 9.09457C53.8095 8.93258 53.7941 8.76966 53.7861 8.6063C53.5445 8.90676 53.2383 9.14955 52.89 9.31681C52.4723 9.51926 52.0131 9.62254 51.5485 9.61853C51.2514 9.62209 50.9559 9.57611 50.6741 9.48248C50.4275 9.40049 50.1998 9.2707 50.004 9.10063C49.8214 8.9404 49.6748 8.74375 49.5735 8.52346C49.4707 8.29665 49.4188 8.0503 49.4212 7.80151C49.4212 7.48969 49.4903 7.20885 49.6284 6.95765C49.7737 6.70017 49.9785 6.48085 50.226 6.31785C50.4859 6.14275 50.802 6.00806 51.1735 5.91579C51.5841 5.81873 52.0051 5.77214 52.427 5.77706H53.7807V5.04836C53.7807 4.5904 53.6352 4.2301 53.3441 3.96812C53.0531 3.70546 52.6301 3.57414 52.0731 3.57414C51.8172 3.57414 51.5817 3.60781 51.3658 3.67516C51.1505 3.7425 50.9644 3.83477 50.8081 3.9533C50.6524 4.07116 50.5299 4.20855 50.4426 4.36412C50.3559 4.51675 50.3107 4.6892 50.3113 4.8645L49.5803 4.85844C49.5803 4.61801 49.6412 4.38499 49.763 4.16005C49.8849 3.93512 50.0561 3.7351 50.2774 3.55932C50.4994 3.38422 50.7654 3.24279 51.0761 3.13638C51.3874 3.02997 51.7319 2.9761 52.1096 2.9761C52.4595 2.9761 52.7817 3.01987 53.0761 3.10675C53.3705 3.19363 53.6237 3.32361 53.8348 3.49736C54.0467 3.67112 54.2112 3.88797 54.3289 4.14861C54.4467 4.40857 54.5056 4.71297 54.5056 5.05981V8.16181C54.5056 8.27226 54.5096 8.38675 54.5178 8.50528C54.5259 8.62314 54.5394 8.73763 54.5577 8.84875C54.576 8.95853 54.597 9.06426 54.6213 9.16528C54.6457 9.26563 54.6741 9.35385 54.7066 9.42793V9.49932H53.9262L53.9269 9.49999ZM51.6345 8.99085C51.8984 8.99085 52.1434 8.95853 52.3688 8.8932C52.5942 8.82787 52.7986 8.7383 52.9814 8.62381C53.1641 8.50932 53.3232 8.37665 53.4572 8.22444C53.5887 8.07638 53.6974 7.90981 53.78 7.73012V6.32122H52.5306C52.1563 6.32122 51.822 6.35422 51.5275 6.41887C51.265 6.47187 51.0129 6.56695 50.781 6.70038C50.5779 6.82228 50.4223 6.97179 50.314 7.14689C50.2058 7.32661 50.15 7.53276 50.1529 7.74224C50.152 7.90957 50.1872 8.07515 50.2561 8.22781C50.325 8.38047 50.426 8.51665 50.5522 8.62718C50.6808 8.73965 50.8358 8.82787 51.0192 8.8932C51.202 8.95853 51.4064 8.99085 51.6345 8.99085ZM58.5415 8.48171L60.4678 3.0953H61.2542L58.4623 10.5237C58.4055 10.6698 58.3331 10.8335 58.2457 11.0153C58.1578 11.1971 58.0447 11.3662 57.9039 11.5244C57.7555 11.6885 57.5779 11.8239 57.3801 11.9238C57.1703 12.0322 56.9158 12.0868 56.6153 12.0868C56.5747 12.0868 56.5273 12.0834 56.4745 12.078C56.3713 12.066 56.2686 12.0503 56.1665 12.0309C56.1288 12.023 56.0913 12.0141 56.0542 12.004L56.0474 11.418C56.1729 11.4373 56.2995 11.4489 56.4264 11.4531C56.6207 11.4531 56.7939 11.4288 56.9442 11.379C57.0945 11.3298 57.2258 11.2571 57.3368 11.1601C57.455 11.0559 57.5552 10.9331 57.6332 10.7964C57.7185 10.6503 57.7956 10.4826 57.8647 10.2933L58.1814 9.44679L55.6941 3.09597H56.4928L58.5415 8.48171Z" fill="#295091"/>
</svg>
