<svg width="65" height="22" viewBox="0 0 65 22" fill="none" xmlns="http://www.w3.org/2000/svg">
<path d="M0.12207 20.1845V2.16447C0.122727 1.86513 0.208329 1.57205 0.369021 1.31898C0.529712 1.06592 0.758962 0.863149 1.03038 0.734024L11.6282 11.1715L1.02631 21.6122C0.756024 21.4828 0.527844 21.2802 0.367917 21.0277C0.207991 20.7752 0.122788 20.483 0.12207 20.1845ZM15.0123 14.5294L3.50622 20.9388L12.5805 12.1837L15.0123 14.5294ZM18.4784 10.2293C18.8398 10.5242 19.0733 10.9896 19.0733 11.5122C19.0733 12.0274 18.8472 12.4867 18.4946 12.7824L16.1859 14.2041L13.6587 11.5095L16.1839 8.81633L18.4784 10.2293ZM3.50622 1.40817L15.0123 7.81758L12.5811 10.1633L3.50622 1.40817ZM42.7623 7.80613C42.7623 9.55041 41.3951 10.8367 39.7166 10.8367C38.038 10.8367 36.6709 9.55041 36.6709 7.80613C36.6709 6.04837 38.038 4.77551 39.7166 4.77551C41.3951 4.77551 42.7623 6.04837 42.7623 7.80613ZM41.429 7.80613C41.429 6.71578 40.6371 5.96958 39.7166 5.96958C38.7961 5.96958 38.0042 6.71578 38.0042 7.80613C38.0042 8.8857 38.7961 9.64268 39.7166 9.64268C40.6371 9.64268 41.429 8.88435 41.429 7.80613ZM49.5306 7.80613C49.5306 9.55041 48.1634 10.8367 46.4849 10.8367C44.8063 10.8367 43.4391 9.55041 43.4391 7.80613C43.4391 6.05039 44.8063 4.77551 46.4849 4.77551C48.1634 4.77551 49.5306 6.04837 49.5306 7.80613ZM48.1973 7.80613C48.1973 6.71578 47.4054 5.96958 46.4849 5.96958C45.5644 5.96958 44.7725 6.71578 44.7725 7.80613C44.7725 8.8857 45.5644 9.64268 46.4849 9.64268C47.4054 9.64268 48.1973 8.88435 48.1973 7.80613ZM56.2989 4.95802V10.3862C56.2989 12.6187 54.9148 13.5306 53.2789 13.5306C51.7391 13.5306 50.8118 12.5507 50.4626 11.7493L51.6775 11.2678C51.8941 11.7594 52.4234 12.3406 53.2775 12.3406C54.3246 12.3406 54.9737 11.7257 54.9737 10.5687V10.1336H54.9249C54.6129 10.5007 54.0112 10.8206 53.2518 10.8206C51.6633 10.8206 50.2074 9.50394 50.2074 7.81017C50.2074 6.10225 51.6626 4.77551 53.2518 4.77551C54.0099 4.77551 54.6116 5.09609 54.9249 5.45168H54.9737V4.96004H56.2989V4.95802ZM55.0725 7.80949C55.0725 6.74541 54.3259 5.96688 53.3764 5.96688C52.4139 5.96688 51.6071 6.74541 51.6071 7.80949C51.6071 8.86347 52.4139 9.63056 53.3764 9.63056C54.3259 9.63056 55.0725 8.8628 55.0725 7.80949ZM58.3294 2.08164V10.1633H56.9757V2.08164H58.3294ZM63.365 8.80488L64.3653 9.49384C64.0425 9.98682 63.2642 10.8367 61.9193 10.8367C60.2516 10.8367 59.0062 9.50596 59.0062 7.80613C59.0062 6.00392 60.2624 4.77551 61.7744 4.77551C63.2987 4.77551 64.0439 6.02682 64.2868 6.70366L64.4209 7.0478L60.4966 8.72541C60.7971 9.33356 61.2641 9.64402 61.9193 9.64402C62.5758 9.64402 63.0313 9.31066 63.365 8.80488ZM60.2847 7.71454L62.9081 6.58984C62.764 6.21135 62.3294 5.94802 61.8184 5.94802C61.1633 5.94802 60.2516 6.54472 60.2847 7.71454ZM31.7747 6.61206V5.41531H35.9324C35.973 5.62409 35.994 5.8699 35.994 6.13727C35.994 7.03433 35.7409 8.14421 34.9253 8.93486C34.1327 9.73629 33.1182 10.1633 31.776 10.1633C29.288 10.1633 27.1952 8.19809 27.1952 5.78572C27.1952 3.37335 29.288 1.40817 31.776 1.40817C33.1527 1.40817 34.1334 1.93213 34.8705 2.61435L34.0001 3.45821C33.4715 2.97802 32.7554 2.60425 31.7747 2.60425C29.9581 2.60425 28.5367 4.02392 28.5367 5.78572C28.5367 7.54751 29.9581 8.96719 31.7747 8.96719C32.9537 8.96719 33.6251 8.50856 34.0549 8.09168C34.4035 7.7536 34.6329 7.27005 34.7236 6.61005L31.7747 6.61206Z" fill="#295091"/>
</svg>
