<svg width="300" height="21" viewBox="0 0 300 21" fill="none" xmlns="http://www.w3.org/2000/svg">
<path d="M1.66 20C1.45467 20 1.28667 19.9347 1.156 19.804C1.02533 19.6733 0.96 19.5053 0.96 19.3V1.1C0.96 0.894666 1.02533 0.726666 1.156 0.595999C1.28667 0.465332 1.45467 0.399999 1.66 0.399999H4.628C4.94533 0.399999 5.16933 0.474665 5.3 0.623999C5.44933 0.754665 5.54267 0.857332 5.58 0.931998L12.412 11.712V1.1C12.412 0.894666 12.4773 0.726666 12.608 0.595999C12.7387 0.465332 12.9067 0.399999 13.112 0.399999H16.472C16.6773 0.399999 16.8453 0.465332 16.976 0.595999C17.1067 0.726666 17.172 0.894666 17.172 1.1V19.3C17.172 19.4867 17.1067 19.6547 16.976 19.804C16.8453 19.9347 16.6773 20 16.472 20H13.476C13.1773 20 12.9533 19.9253 12.804 19.776C12.6733 19.6267 12.5893 19.524 12.552 19.468L5.72 9.108V19.3C5.72 19.5053 5.65467 19.6733 5.524 19.804C5.39333 19.9347 5.22533 20 5.02 20H1.66ZM19.965 20C19.8157 20 19.6757 19.944 19.545 19.832C19.433 19.7013 19.377 19.5613 19.377 19.412C19.377 19.3187 19.3863 19.2347 19.405 19.16L25.985 1.184C26.041 0.978666 26.153 0.801332 26.321 0.651999C26.5077 0.483999 26.7597 0.399999 27.077 0.399999H31.221C31.5383 0.399999 31.781 0.483999 31.949 0.651999C32.1357 0.801332 32.257 0.978666 32.313 1.184L38.865 19.16C38.9023 19.2347 38.921 19.3187 38.921 19.412C38.921 19.5613 38.8557 19.7013 38.725 19.832C38.613 19.944 38.473 20 38.305 20H34.861C34.581 20 34.3663 19.9347 34.217 19.804C34.0863 19.6547 34.0023 19.524 33.965 19.412L32.873 16.556H25.397L24.333 19.412C24.2957 19.524 24.2117 19.6547 24.081 19.804C23.9503 19.9347 23.7263 20 23.409 20H19.965ZM26.545 12.524H31.753L29.121 5.132L26.545 12.524ZM41.828 20C41.6413 20 41.4733 19.9347 41.324 19.804C41.1933 19.6733 41.128 19.5053 41.128 19.3V1.1C41.128 0.894666 41.1933 0.726666 41.324 0.595999C41.4733 0.465332 41.6413 0.399999 41.828 0.399999H44.852C45.1506 0.399999 45.3746 0.483999 45.524 0.651999C45.692 0.801332 45.7946 0.922666 45.832 1.016L50.76 9.864L55.688 1.016C55.744 0.922666 55.8373 0.801332 55.968 0.651999C56.1173 0.483999 56.3506 0.399999 56.668 0.399999H59.664C59.8693 0.399999 60.0373 0.465332 60.168 0.595999C60.3173 0.726666 60.392 0.894666 60.392 1.1V19.3C60.392 19.5053 60.3173 19.6733 60.168 19.804C60.0373 19.9347 59.8693 20 59.664 20H56.332C56.1266 20 55.9493 19.9347 55.8 19.804C55.6693 19.6733 55.604 19.5053 55.604 19.3V8.8L52.44 14.652C52.3653 14.82 52.2533 14.9693 52.104 15.1C51.9546 15.2307 51.7493 15.296 51.488 15.296H50.032C49.7706 15.296 49.5653 15.2307 49.416 15.1C49.2666 14.9693 49.1453 14.82 49.052 14.652L45.888 8.8V19.3C45.888 19.5053 45.8226 19.6733 45.692 19.804C45.5613 19.9347 45.3933 20 45.188 20H41.828ZM63.1681 20C63.0188 20 62.8788 19.944 62.7481 19.832C62.6361 19.7013 62.5801 19.5613 62.5801 19.412C62.5801 19.3187 62.5895 19.2347 62.6081 19.16L69.1881 1.184C69.2441 0.978666 69.3561 0.801332 69.5241 0.651999C69.7108 0.483999 69.9628 0.399999 70.2801 0.399999H74.4241C74.7415 0.399999 74.9841 0.483999 75.1521 0.651999C75.3388 0.801332 75.4601 0.978666 75.5161 1.184L82.0681 19.16C82.1055 19.2347 82.1241 19.3187 82.1241 19.412C82.1241 19.5613 82.0588 19.7013 81.9281 19.832C81.8161 19.944 81.6761 20 81.5081 20H78.0641C77.7841 20 77.5695 19.9347 77.4201 19.804C77.2895 19.6547 77.2055 19.524 77.1681 19.412L76.0761 16.556H68.6001L67.5361 19.412C67.4988 19.524 67.4148 19.6547 67.2841 19.804C67.1535 19.9347 66.9295 20 66.6121 20H63.1681ZM69.7481 12.524H74.9561L72.3241 5.132L69.7481 12.524ZM85.0311 20C84.8258 20 84.6578 19.9347 84.5271 19.804C84.3964 19.6733 84.3311 19.5053 84.3311 19.3V1.1C84.3311 0.894666 84.3964 0.726666 84.5271 0.595999C84.6578 0.465332 84.8258 0.399999 85.0311 0.399999H87.9991C88.3164 0.399999 88.5404 0.474665 88.6711 0.623999C88.8204 0.754665 88.9138 0.857332 88.9511 0.931998L95.7831 11.712V1.1C95.7831 0.894666 95.8484 0.726666 95.9791 0.595999C96.1098 0.465332 96.2778 0.399999 96.4831 0.399999H99.8431C100.048 0.399999 100.216 0.465332 100.347 0.595999C100.478 0.726666 100.543 0.894666 100.543 1.1V19.3C100.543 19.4867 100.478 19.6547 100.347 19.804C100.216 19.9347 100.048 20 99.8431 20H96.8471C96.5484 20 96.3244 19.9253 96.1751 19.776C96.0444 19.6267 95.9604 19.524 95.9231 19.468L89.0911 9.108V19.3C89.0911 19.5053 89.0258 19.6733 88.8951 19.804C88.7644 19.9347 88.5964 20 88.3911 20H85.0311ZM112.548 20.28C110.775 20.28 109.244 19.9907 107.956 19.412C106.687 18.8147 105.697 17.956 104.988 16.836C104.297 15.6973 103.915 14.316 103.84 12.692C103.821 11.8893 103.812 11.04 103.812 10.144C103.812 9.22933 103.821 8.36133 103.84 7.54C103.915 5.95333 104.307 4.60933 105.016 3.508C105.725 2.40667 106.724 1.56667 108.012 0.987999C109.3 0.409332 110.812 0.119999 112.548 0.119999C113.948 0.119999 115.189 0.297332 116.272 0.651999C117.355 0.987999 118.26 1.44533 118.988 2.024C119.735 2.60267 120.295 3.23733 120.668 3.928C121.06 4.61867 121.265 5.3 121.284 5.972C121.303 6.14 121.247 6.28 121.116 6.392C121.004 6.504 120.864 6.56 120.696 6.56H116.608C116.403 6.56 116.244 6.532 116.132 6.476C116.039 6.40133 115.955 6.29867 115.88 6.168C115.749 5.888 115.553 5.59867 115.292 5.3C115.049 4.98267 114.704 4.712 114.256 4.488C113.827 4.264 113.257 4.152 112.548 4.152C111.484 4.152 110.644 4.432 110.028 4.992C109.431 5.552 109.104 6.448 109.048 7.68C108.992 9.28533 108.992 10.9093 109.048 12.552C109.104 13.8587 109.449 14.8013 110.084 15.38C110.719 15.9587 111.559 16.248 112.604 16.248C113.313 16.248 113.939 16.1267 114.48 15.884C115.04 15.6413 115.479 15.268 115.796 14.764C116.113 14.2413 116.272 13.5787 116.272 12.776V12.244H113.64C113.435 12.244 113.257 12.1787 113.108 12.048C112.977 11.8987 112.912 11.7213 112.912 11.516V9.444C112.912 9.23867 112.977 9.07067 113.108 8.94C113.257 8.79067 113.435 8.716 113.64 8.716H120.696C120.901 8.716 121.069 8.79067 121.2 8.94C121.331 9.07067 121.396 9.23867 121.396 9.444V12.636C121.396 14.2413 121.032 15.6133 120.304 16.752C119.576 17.8907 118.54 18.768 117.196 19.384C115.871 19.9813 114.321 20.28 112.548 20.28ZM123.051 20C122.902 20 122.762 19.944 122.631 19.832C122.519 19.7013 122.463 19.5613 122.463 19.412C122.463 19.3187 122.472 19.2347 122.491 19.16L129.071 1.184C129.127 0.978666 129.239 0.801332 129.407 0.651999C129.594 0.483999 129.846 0.399999 130.163 0.399999H134.307C134.624 0.399999 134.867 0.483999 135.035 0.651999C135.222 0.801332 135.343 0.978666 135.399 1.184L141.951 19.16C141.988 19.2347 142.007 19.3187 142.007 19.412C142.007 19.5613 141.942 19.7013 141.811 19.832C141.699 19.944 141.559 20 141.391 20H137.947C137.667 20 137.452 19.9347 137.303 19.804C137.172 19.6547 137.088 19.524 137.051 19.412L135.959 16.556H128.483L127.419 19.412C127.382 19.524 127.298 19.6547 127.167 19.804C127.036 19.9347 126.812 20 126.495 20H123.051ZM129.631 12.524H134.839L132.207 5.132L129.631 12.524ZM144.914 20C144.709 20 144.541 19.9347 144.41 19.804C144.279 19.6733 144.214 19.5053 144.214 19.3V1.1C144.214 0.894666 144.279 0.726666 144.41 0.595999C144.541 0.465332 144.709 0.399999 144.914 0.399999H147.882C148.199 0.399999 148.423 0.474665 148.554 0.623999C148.703 0.754665 148.797 0.857332 148.834 0.931998L155.666 11.712V1.1C155.666 0.894666 155.731 0.726666 155.862 0.595999C155.993 0.465332 156.161 0.399999 156.366 0.399999H159.726C159.931 0.399999 160.099 0.465332 160.23 0.595999C160.361 0.726666 160.426 0.894666 160.426 1.1V19.3C160.426 19.4867 160.361 19.6547 160.23 19.804C160.099 19.9347 159.931 20 159.726 20H156.73C156.431 20 156.207 19.9253 156.058 19.776C155.927 19.6267 155.843 19.524 155.806 19.468L148.974 9.108V19.3C148.974 19.5053 148.909 19.6733 148.778 19.804C148.647 19.9347 148.479 20 148.274 20H144.914ZM165.039 20C164.834 20 164.666 19.9347 164.535 19.804C164.404 19.6733 164.339 19.5053 164.339 19.3V1.1C164.339 0.894666 164.404 0.726666 164.535 0.595999C164.666 0.465332 164.834 0.399999 165.039 0.399999H168.735C168.922 0.399999 169.08 0.465332 169.211 0.595999C169.36 0.726666 169.435 0.894666 169.435 1.1V15.772H177.891C178.096 15.772 178.264 15.8467 178.395 15.996C178.544 16.1267 178.619 16.2947 178.619 16.5V19.3C178.619 19.5053 178.544 19.6733 178.395 19.804C178.264 19.9347 178.096 20 177.891 20H165.039ZM181.746 20C181.541 20 181.373 19.9347 181.242 19.804C181.111 19.6733 181.046 19.5053 181.046 19.3V1.1C181.046 0.894666 181.111 0.726666 181.242 0.595999C181.373 0.465332 181.541 0.399999 181.746 0.399999H185.498C185.703 0.399999 185.871 0.465332 186.002 0.595999C186.133 0.726666 186.198 0.894666 186.198 1.1V19.3C186.198 19.5053 186.133 19.6733 186.002 19.804C185.871 19.9347 185.703 20 185.498 20H181.746ZM190.824 20C190.619 20 190.451 19.9347 190.32 19.804C190.189 19.6733 190.124 19.5053 190.124 19.3V1.1C190.124 0.894666 190.189 0.726666 190.32 0.595999C190.451 0.465332 190.619 0.399999 190.824 0.399999H194.352C194.557 0.399999 194.725 0.465332 194.856 0.595999C194.987 0.726666 195.052 0.894666 195.052 1.1V7.316L200.232 0.931998C200.307 0.819999 200.428 0.707999 200.596 0.595999C200.783 0.465332 201.025 0.399999 201.324 0.399999H205.356C205.524 0.399999 205.664 0.465332 205.776 0.595999C205.888 0.707999 205.944 0.838666 205.944 0.987999C205.944 1.11867 205.907 1.23067 205.832 1.324L199.14 9.78L206.364 19.076C206.439 19.1507 206.476 19.2627 206.476 19.412C206.476 19.5613 206.411 19.7013 206.28 19.832C206.168 19.944 206.037 20 205.888 20H201.716C201.38 20 201.119 19.9253 200.932 19.776C200.764 19.6267 200.652 19.5147 200.596 19.44L195.052 12.524V19.3C195.052 19.5053 194.987 19.6733 194.856 19.804C194.725 19.9347 194.557 20 194.352 20H190.824ZM209.363 20C209.158 20 208.99 19.9347 208.859 19.804C208.728 19.6733 208.663 19.5053 208.663 19.3V1.1C208.663 0.894666 208.728 0.726666 208.859 0.595999C208.99 0.465332 209.158 0.399999 209.363 0.399999H213.059C213.246 0.399999 213.404 0.465332 213.535 0.595999C213.684 0.726666 213.759 0.894666 213.759 1.1V15.772H222.215C222.42 15.772 222.588 15.8467 222.719 15.996C222.868 16.1267 222.943 16.2947 222.943 16.5V19.3C222.943 19.5053 222.868 19.6733 222.719 19.804C222.588 19.9347 222.42 20 222.215 20H209.363ZM224.25 20C224.101 20 223.961 19.944 223.83 19.832C223.718 19.7013 223.662 19.5613 223.662 19.412C223.662 19.3187 223.671 19.2347 223.69 19.16L230.27 1.184C230.326 0.978666 230.438 0.801332 230.606 0.651999C230.793 0.483999 231.045 0.399999 231.362 0.399999H235.506C235.823 0.399999 236.066 0.483999 236.234 0.651999C236.421 0.801332 236.542 0.978666 236.598 1.184L243.15 19.16C243.187 19.2347 243.206 19.3187 243.206 19.412C243.206 19.5613 243.141 19.7013 243.01 19.832C242.898 19.944 242.758 20 242.59 20H239.146C238.866 20 238.651 19.9347 238.502 19.804C238.371 19.6547 238.287 19.524 238.25 19.412L237.158 16.556H229.682L228.618 19.412C228.581 19.524 228.497 19.6547 228.366 19.804C228.235 19.9347 228.011 20 227.694 20H224.25ZM230.83 12.524H236.038L233.406 5.132L230.83 12.524ZM246.113 20C245.908 20 245.74 19.9347 245.609 19.804C245.478 19.6733 245.413 19.5053 245.413 19.3V1.1C245.413 0.894666 245.478 0.726666 245.609 0.595999C245.74 0.465332 245.908 0.399999 246.113 0.399999H253.729C256.137 0.399999 258.032 0.959999 259.413 2.08C260.813 3.18133 261.513 4.74933 261.513 6.784C261.513 8.10933 261.186 9.22933 260.533 10.144C259.898 11.0587 259.058 11.7493 258.013 12.216L261.877 19.104C261.933 19.216 261.961 19.3187 261.961 19.412C261.961 19.5613 261.896 19.7013 261.765 19.832C261.653 19.944 261.513 20 261.345 20H257.649C257.294 20 257.033 19.916 256.865 19.748C256.697 19.5613 256.576 19.3933 256.501 19.244L253.309 13.084H250.425V19.3C250.425 19.5053 250.36 19.6733 250.229 19.804C250.098 19.9347 249.93 20 249.725 20H246.113ZM250.425 9.136H253.673C254.55 9.136 255.204 8.92133 255.633 8.492C256.081 8.06267 256.305 7.47467 256.305 6.728C256.305 6 256.09 5.412 255.661 4.964C255.25 4.516 254.588 4.292 253.673 4.292H250.425V9.136ZM264.689 20C264.483 20 264.306 19.9347 264.157 19.804C264.026 19.6733 263.961 19.5053 263.961 19.3V17.312C263.961 17.1813 263.998 16.9853 264.073 16.724C264.147 16.444 264.343 16.1827 264.66 15.94L267.573 13.084C269.066 11.9453 270.289 10.984 271.241 10.2C272.211 9.39733 272.93 8.688 273.397 8.072C273.863 7.456 274.097 6.87733 274.097 6.336C274.097 5.70133 273.929 5.17867 273.593 4.768C273.275 4.33867 272.715 4.124 271.913 4.124C271.371 4.124 270.914 4.24533 270.541 4.488C270.186 4.712 269.915 5.01067 269.729 5.384C269.542 5.75733 269.411 6.14 269.337 6.532C269.262 6.77467 269.131 6.94267 268.945 7.036C268.777 7.12933 268.59 7.176 268.385 7.176H264.885C264.717 7.176 264.577 7.12 264.465 7.008C264.353 6.896 264.297 6.756 264.297 6.588C264.315 5.692 264.502 4.852 264.857 4.068C265.23 3.284 265.743 2.59333 266.397 1.996C267.069 1.38 267.862 0.903999 268.777 0.568C269.71 0.232 270.755 0.0639997 271.913 0.0639997C273.499 0.0639997 274.843 0.315999 275.945 0.819998C277.065 1.324 277.914 2.03333 278.493 2.948C279.071 3.844 279.361 4.89867 279.361 6.112C279.361 7.02667 279.155 7.88533 278.745 8.688C278.353 9.472 277.783 10.228 277.037 10.956C276.309 11.6653 275.441 12.4027 274.433 13.168L271.857 15.772H279.053C279.258 15.772 279.426 15.8373 279.557 15.968C279.706 16.0987 279.781 16.2667 279.781 16.472V19.3C279.781 19.5053 279.706 19.6733 279.557 19.804C279.426 19.9347 279.258 20 279.053 20H264.689ZM291.806 20C291.619 20 291.451 19.9347 291.302 19.804C291.171 19.6733 291.106 19.5053 291.106 19.3V16.136H282.398C282.211 16.136 282.043 16.0707 281.894 15.94C281.763 15.8093 281.698 15.6413 281.698 15.436V12.776C281.698 12.608 281.726 12.4587 281.782 12.328C281.857 12.1787 281.931 12.0387 282.006 11.908L290.154 0.875999C290.397 0.558666 290.742 0.399999 291.19 0.399999H295.25C295.455 0.399999 295.623 0.465332 295.754 0.595999C295.903 0.726666 295.978 0.894666 295.978 1.1V11.964H298.442C298.666 11.964 298.843 12.0387 298.974 12.188C299.105 12.3187 299.17 12.4773 299.17 12.664V15.436C299.17 15.6413 299.095 15.8093 298.946 15.94C298.815 16.0707 298.657 16.136 298.47 16.136H295.978V19.3C295.978 19.5053 295.903 19.6733 295.754 19.804C295.623 19.9347 295.455 20 295.25 20H291.806ZM286.514 12.16H291.218V5.552L286.514 12.16Z" fill="#295091"/>
</svg>
